# 3ds Max Wavefront OBJ Exporter v0.97b - (c)2007 guruware
# File Created: 23.02.2020 22:54:39

#
# object Face
#

v  3.2127 8.6069 1.3614
v  -3.2816 8.6069 1.3614
v  -0.9065 4.8984 2.5913
v  -1.4472 -6.5486 0.9488
v  -3.6114 -6.5702 -2.7412
v  -0.4168 -6.9716 -0.2250
v  -3.4150 -1.6454 0.4983
v  -1.8490 0.3153 1.2581
v  -3.8415 0.0429 0.1628
v  3.7475 0.0429 0.1628
v  2.9219 -1.6556 0.4437
v  4.0890 -3.8014 -0.4065
v  1.6129 -2.4380 0.2601
v  2.7702 -3.4782 0.3790
v  0.5417 -3.1807 1.2547
v  4.7211 -5.3124 -2.1231
v  5.9079 -3.5835 -5.1639
v  4.7045 -1.7973 -1.1995
v  -0.8937 3.8611 1.6999
v  -2.1048 1.3379 1.1633
v  1.6138 0.2582 1.0484
v  2.9756 1.2468 0.4059
v  0.2207 3.9440 2.2882
v  -3.8857 -5.4690 -0.1846
v  -6.4712 -3.1286 -6.1513
v  -4.8553 -5.3879 -2.1231
v  -4.8421 -1.8260 -1.1995
v  7.1976 1.5254 -7.6645
v  7.2080 2.2917 -4.1454
v  6.0695 -3.6476 -6.6609
v  -0.0345 4.8919 2.5605
v  3.0940 5.0766 1.8281
v  1.1207 -0.8686 1.6333
v  0.4761 -2.4887 1.9094
v  3.2365 -3.2800 0.3937
v  -1.2722 0.4466 1.7888
v  -0.6856 0.3832 3.5374
v  -3.1575 4.2671 0.5799
v  -3.2022 4.6362 1.9281
v  -4.1824 3.8409 0.5876
v  -6.9186 1.4655 -3.3551
v  1.3425 -6.5333 0.9488
v  2.0036 -6.9659 -0.9848
v  -1.6240 -3.4133 1.6739
v  -0.0886 -3.1761 1.0976
v  -3.0249 -3.4122 0.3790
v  4.1034 4.1509 0.5876
v  0.8248 3.8611 1.6999
v  1.4422 3.7587 0.4573
v  4.8223 -5.2724 -6.2582
v  -3.4992 3.2186 0.4565
v  -1.8038 3.4995 0.2819
v  -1.5111 3.7587 0.4573
v  0.6167 0.3832 3.5374
v  1.2003 0.4466 1.7888
v  0.7046 -0.8108 2.4996
v  0.3306 -0.5758 3.5721
v  -0.1061 -1.3725 1.8379
v  -5.8461 7.6491 -1.2576
v  -7.4922 2.6560 -6.9974
v  -7.2182 3.4597 -3.7799
v  -4.8455 6.4736 0.5604
v  -1.8036 -0.7476 0.9031
v  -1.2283 -0.8686 1.6333
v  -0.7869 -0.8108 2.4996
v  -0.3996 -0.5758 3.5721
v  -1.7653 -0.3885 1.8896
v  5.6663 1.1351 -0.9189
v  4.7328 3.6934 -0.3142
v  5.5010 5.5013 0.0676
v  4.5033 5.1222 1.0776
v  6.0805 3.7768 -1.3389
v  2.9789 -3.3911 -0.0322
v  1.8357 -4.0191 0.5796
v  -3.2344 -3.3791 -0.0322
v  -0.0768 -3.0887 1.8098
v  -5.4390 4.4824 0.4568
v  -4.8018 3.6934 -0.3142
v  -6.1494 3.7768 -1.3389
v  -5.7352 1.1351 -0.9189
v  -1.8979 -4.7818 1.0023
v  -1.3750 -5.7983 1.2692
v  1.5687 -4.5585 1.0305
v  -0.0704 -4.7553 1.4035
v  -0.6184 -2.4641 1.9094
v  0.3976 -1.0522 1.9219
v  -4.3219 -3.8710 -0.4065
v  -3.2368 -3.3698 0.4449
v  7.3911 4.0360 -5.9964
v  1.0865 3.4001 0.7889
v  -6.8331 -1.1518 -8.3717
v  1.6691 -0.3885 1.8896
v  3.6822 -5.3892 -0.1846
v  -0.0868 -3.8138 1.1348
v  -5.6817 -4.5088 -7.6267
v  0.6319 0.2666 -0.0385
v  0.1642 -0.3924 2.6228
v  0.1639 0.3293 0.8574
v  -6.0906 5.0453 -1.0389
v  0.4381 -3.5013 1.9196
v  -0.0387 -6.5194 0.9952
v  2.4056 -3.8799 0.8710
v  -2.1471 3.4339 0.1326
v  -4.1185 3.2494 0.4142
v  -0.4929 -1.0522 1.9219
v  -0.7056 0.2666 -0.0385
v  -0.2335 0.3293 0.8574
v  -0.2339 -0.3924 2.6228
v  3.4303 3.2186 0.4565
v  4.0496 3.2494 0.4142
v  5.9571 -3.2557 -8.5769
v  -2.0588 -3.9549 0.5796
v  1.7349 3.4995 0.2819
v  1.6794 -0.7476 0.9031
v  -0.3135 -0.7113 2.2404
v  -4.6472 3.6563 -0.3985
v  0.2352 -0.7113 2.2404
v  3.0886 4.2671 0.5799
v  4.5783 3.6563 -0.3985
v  5.7772 7.6491 -1.2576
v  6.6177 2.2957 -2.0357
v  2.0781 3.4339 0.1326
# 122 vertices

vn 0.3867 0.2152 0.8968
vn -0.3840 0.2407 0.8914
vn -0.1367 -0.1506 0.9791
vn -0.2782 -0.7203 0.6355
vn -0.5845 -0.7977 0.1487
vn -0.0669 -0.9657 0.2508
vn -0.5501 -0.0123 0.8350
vn -0.6419 0.0561 0.7648
vn -0.5451 -0.0509 0.8368
vn 0.4799 -0.0445 0.8762
vn 0.5146 0.0311 0.8569
vn 0.8056 -0.0485 0.5904
vn -0.2936 -0.6891 -0.6625
vn -0.8196 0.4274 0.3815
vn -0.5038 -0.6943 -0.5139
vn 0.8134 -0.5260 0.2483
vn 0.9356 -0.2951 0.1939
vn 0.7860 -0.2212 0.5773
vn -0.5833 -0.3172 0.7477
vn -0.5579 0.1444 0.8173
vn 0.7314 0.0929 0.6756
vn 0.4258 -0.0083 0.9048
vn 0.3404 0.0044 0.9403
vn -0.6723 -0.4483 0.5891
vn -0.9430 -0.3244 0.0743
vn -0.8418 -0.4754 0.2558
vn -0.7787 -0.2190 0.5879
vn 0.9843 -0.1760 0.0148
vn 0.9758 -0.0735 0.2057
vn 0.9010 -0.4320 -0.0388
vn 0.1460 -0.0413 0.9884
vn 0.3776 -0.2308 0.8968
vn 0.3609 -0.4324 0.8263
vn 0.2393 -0.1659 0.9567
vn 0.5668 -0.0915 0.8188
vn -0.8147 0.2882 0.5033
vn -0.5293 0.1405 0.8367
vn 0.0707 -0.9511 0.3007
vn -0.3555 -0.4496 0.8195
vn -0.0252 -0.9259 0.3769
vn -0.9425 -0.1677 0.2893
vn 0.2661 -0.6007 0.7539
vn 0.4633 -0.8416 0.2776
vn -0.3235 0.4434 0.8359
vn 0.0350 0.8703 -0.4913
vn 0.9826 0.0493 -0.1790
vn 0.2760 -0.7705 0.5746
vn 0.1420 -0.8817 0.4500
vn 0.4529 -0.5739 0.6823
vn 0.7473 -0.6640 -0.0269
vn 0.0268 0.1011 0.9945
vn -0.4074 -0.0212 0.9130
vn -0.6498 -0.3853 0.6553
vn 0.5402 0.1529 0.8276
vn 0.8714 0.3350 0.3583
vn 0.3717 -0.9265 0.0592
vn 0.2994 -0.5379 0.7880
vn -0.0016 -0.3843 0.9232
vn -0.8643 0.2019 0.4606
vn -0.9926 -0.0919 0.0798
vn -0.9797 0.0807 0.1835
vn -0.7056 0.1847 0.6842
vn -0.6052 0.0506 0.7945
vn -0.3453 -0.4144 0.8420
vn -0.3228 -0.9417 0.0949
vn -0.2937 -0.5731 0.7650
vn -0.8867 -0.2240 0.4045
vn 0.7088 -0.1681 0.6851
vn 0.4399 -0.3325 0.8342
vn 0.8107 0.0295 0.5847
vn 0.5396 0.1359 0.8309
vn 0.8588 0.0074 0.5122
vn -0.8507 -0.2186 -0.4781
vn -0.2874 0.1224 -0.9500
vn 0.7071 -0.5745 -0.4123
vn 0.0146 -0.7932 0.6088
vn -0.7116 -0.2829 0.6431
vn -0.5100 -0.4335 0.7430
vn -0.8473 -0.1234 0.5166
vn -0.7622 -0.1551 0.6285
vn -0.4100 -0.1305 0.9027
vn -0.2290 -0.1639 0.9595
vn 0.3172 -0.1150 0.9414
vn 0.0772 -0.3376 0.9381
vn -0.2418 -0.1632 0.9565
vn 0.7444 0.0236 0.6673
vn -0.8514 -0.0237 0.5240
vn -0.4817 -0.0826 0.8724
vn 0.9887 0.0244 0.1482
vn 0.7604 0.2699 0.5907
vn -0.9787 -0.2053 0.0082
vn 0.9179 -0.1950 0.3455
vn 0.6679 -0.4325 0.6057
vn -0.0078 -0.0583 -0.9983
vn -0.8701 -0.4902 -0.0517
vn -0.1248 -0.3706 0.9204
vn 0.4153 -0.3547 -0.8377
vn 0.5738 -0.8066 0.1417
vn -0.9109 0.0742 0.4058
vn 0.1925 0.3464 0.9181
vn 0.0493 -0.6243 0.7796
vn 0.6821 -0.2364 0.6920
vn -0.4139 0.5913 0.6921
vn -0.2810 0.4328 0.8566
vn -0.7854 0.0739 0.6146
vn 0.1176 -0.3708 0.9212
vn -0.5845 -0.7983 0.1454
vn -0.4264 -0.3480 -0.8349
vn 0.0992 0.2061 0.9735
vn 0.4695 0.2976 0.8312
vn 0.9264 -0.3545 -0.1269
vn 0.2793 0.1243 -0.9521
vn 0.2824 0.3075 0.9087
vn 0.6887 0.0825 0.7204
vn -0.8194 0.5340 -0.2083
vn 0.5921 -0.0599 0.8036
vn 0.8269 0.5177 -0.2196
vn 0.0412 0.0228 -0.9989
vn -0.4420 0.0772 0.8937
vn 0.8754 0.1672 0.4535
vn 0.9149 -0.0780 0.3961
vn 0.4139 0.5913 0.6921
# 122 vertex normals

o Face
g Face
f 1//1 2//2 3//3 
f 4//4 5//5 6//6 
f 7//7 8//8 9//9 
f 10//10 11//11 12//12 
f 13//13 14//14 15//15 
f 16//16 17//17 18//18 
f 19//19 20//20 8//8 
f 21//21 22//22 23//23 
f 24//24 5//5 4//4 
f 25//25 26//26 27//27 
f 28//28 29//29 30//30 
f 31//31 32//32 1//1 
f 33//33 34//34 35//35 
f 36//36 37//37 19//19 
f 38//38 39//39 40//40 
f 27//27 41//41 25//25 
f 16//16 42//42 43//43 
f 44//44 45//45 46//46 
f 16//16 18//18 10//10 
f 47//47 48//48 49//49 
f 50//50 30//30 16//16 
f 51//51 9//9 52//52 
f 53//53 20//20 19//19 
f 23//23 54//54 55//55 
f 56//56 57//57 58//58 
f 59//59 60//60 61//61 
f 62//62 39//39 2//2 
f 63//63 7//7 64//64 
f 65//65 66//66 67//67 
f 68//68 69//69 22//22 
f 70//70 71//71 72//72 
f 14//14 73//73 74//74 
f 75//75 13//13 76//76 
f 77//77 40//40 39//39 
f 78//78 79//79 80//80 
f 81//81 24//24 82//82 
f 82//82 83//83 84//84 
f 85//85 64//64 7//7 
f 86//86 58//58 34//34 
f 9//9 87//87 7//7 
f 88//88 24//24 81//81 
f 72//72 89//89 70//70 
f 23//23 22//22 90//90 
f 91//91 25//25 41//41 
f 55//55 54//54 92//92 
f 11//11 33//33 35//35 
f 35//35 12//12 11//11 
f 12//12 83//83 93//93 
f 69//69 72//72 71//71 
f 48//48 47//47 32//32 
f 45//45 74//74 94//94 
f 95//95 5//5 26//26 
f 86//86 33//33 96//96 
f 33//33 86//86 34//34 
f 92//92 57//57 56//56 
f 33//33 97//97 98//98 
f 69//69 71//71 47//47 
f 79//79 61//61 80//80 
f 61//61 99//99 59//59 
f 74//74 45//45 14//14 
f 45//45 100//100 14//14 
f 6//6 101//101 4//4 
f 101//101 83//83 82//82 
f 1//1 32//32 70//70 
f 31//31 48//48 32//32 
f 53//53 19//19 39//39 
f 100//100 84//84 102//102 
f 88//88 81//81 44//44 
f 7//7 88//88 85//85 
f 24//24 88//88 7//7 
f 103//103 51//51 52//52 
f 39//39 38//38 53//53 
f 80//80 104//104 78//78 
f 65//65 67//67 64//64 
f 105//105 64//64 85//85 
f 106//106 64//64 105//105 
f 107//107 108//108 64//64 
f 54//54 23//23 37//37 
f 66//66 65//65 57//57 
f 90//90 22//22 109//109 
f 22//22 69//69 110//110 
f 80//80 41//41 27//27 
f 9//9 27//27 26//26 
f 30//30 50//50 111//111 
f 111//111 28//28 30//30 
f 94//94 112//112 45//45 
f 109//109 113//113 90//90 
f 47//47 49//49 113//113 
f 8//8 36//36 19//19 
f 67//67 63//63 64//64 
f 12//12 93//93 16//16 
f 10//10 12//12 16//16 
f 26//26 25//25 95//95 
f 91//91 95//95 25//25 
f 17//17 29//29 18//18 
f 72//72 69//69 68//68 
f 79//79 78//78 77//77 
f 99//99 62//62 59//59 
f 33//33 92//92 56//56 
f 33//33 114//114 92//92 
f 102//102 14//14 100//100 
f 83//83 12//12 35//35 
f 46//46 45//45 112//112 
f 64//64 108//108 65//65 
f 115//115 107//107 105//105 
f 2//2 59//59 62//62 
f 2//2 39//39 3//3 
f 39//39 19//19 3//3 
f 38//38 103//103 52//52 
f 76//76 46//46 75//75 
f 112//112 75//75 46//46 
f 40//40 116//116 38//38 
f 116//116 78//78 104//104 
f 6//6 43//43 42//42 
f 56//56 97//97 33//33 
f 86//86 98//98 117//117 
f 19//19 37//37 23//23 
f 3//3 19//19 23//23 
f 26//26 87//87 9//9 
f 24//24 26//26 5//5 
f 92//92 114//114 21//21 
f 22//22 21//21 11//11 
f 85//85 46//46 76//76 
f 35//35 34//34 76//76 
f 118//118 47//47 113//113 
f 118//118 119//119 47//47 
f 42//42 16//16 93//93 
f 93//93 83//83 42//42 
f 82//82 84//84 81//81 
f 81//81 84//84 100//100 
f 8//8 63//63 67//67 
f 7//7 63//63 8//8 
f 110//110 69//69 119//119 
f 69//69 47//47 119//119 
f 104//104 80//80 9//9 
f 27//27 9//9 80//80 
f 85//85 58//58 105//105 
f 58//58 57//57 65//65 
f 100//100 44//44 81//81 
f 44//44 100//100 45//45 
f 52//52 20//20 53//53 
f 52//52 53//53 38//38 
f 14//14 13//13 73//73 
f 16//16 43//43 50//50 
f 107//107 106//106 105//105 
f 64//64 106//106 107//107 
f 86//86 96//96 98//98 
f 98//98 96//96 33//33 
f 41//41 60//60 91//91 
f 116//116 40//40 78//78 
f 40//40 77//77 78//78 
f 89//89 120//120 70//70 
f 70//70 120//120 1//1 
f 76//76 14//14 35//35 
f 102//102 35//35 14//14 
f 18//18 121//121 68//68 
f 10//10 18//18 68//68 
f 113//113 122//122 118//118 
f 113//113 109//109 122//122 
f 41//41 80//80 61//61 
f 61//61 60//60 41//41 
f 67//67 37//37 36//36 
f 67//67 36//36 8//8 
f 68//68 121//121 72//72 
f 89//89 72//72 121//121 
f 110//110 119//119 109//109 
f 110//110 109//109 22//22 
f 51//51 116//116 104//104 
f 9//9 51//51 104//104 
f 57//57 92//92 54//54 
f 57//57 54//54 37//37 
f 35//35 102//102 83//83 
f 84//84 83//83 102//102 
f 29//29 28//28 89//89 
f 4//4 82//82 24//24 
f 4//4 101//101 82//82 
f 21//21 55//55 92//92 
f 23//23 55//55 21//21 
f 33//33 11//11 114//114 
f 21//21 114//114 11//11 
f 31//31 23//23 48//48 
f 49//49 48//48 23//23 
f 13//13 15//15 76//76 
f 14//14 76//76 15//15 
f 117//117 56//56 86//86 
f 58//58 86//86 56//56 
f 44//44 46//46 88//88 
f 46//46 85//85 88//88 
f 71//71 70//70 32//32 
f 71//71 32//32 47//47 
f 37//37 67//67 66//66 
f 37//37 66//66 57//57 
f 105//105 65//65 115//115 
f 65//65 105//105 58//58 
f 34//34 85//85 76//76 
f 58//58 85//85 34//34 
f 3//3 31//31 1//1 
f 31//31 3//3 23//23 
f 7//7 87//87 24//24 
f 26//26 24//24 87//87 
f 42//42 101//101 6//6 
f 42//42 83//83 101//101 
f 29//29 17//17 30//30 
f 30//30 17//17 16//16 
f 121//121 18//18 29//29 
f 121//121 29//29 89//89 
f 99//99 61//61 79//79 
f 99//99 79//79 77//77 
f 23//23 90//90 49//49 
f 49//49 90//90 113//113 
f 117//117 97//97 56//56 
f 97//97 117//117 98//98 
f 65//65 108//108 115//115 
f 107//107 115//115 108//108 
f 20//20 9//9 8//8 
f 9//9 20//20 52//52 
f 62//62 77//77 39//39 
f 62//62 99//99 77//77 
f 11//11 10//10 22//22 
f 22//22 10//10 68//68 
# 220 faces

