# 3ds Max Wavefront OBJ Exporter v0.97b - (c)2007 guruware
# File Created: 12.04.2020 22:41:52

mtllib Fresco.mtl

#
# object Cylinder001
#

v  0.6643 0.6643 -0.9515
v  0.7068 0.7068 0.9515
v  0.9996 -0.0000 0.9515
v  0.9395 -0.0000 -0.9515
v  0.0000 0.9395 -0.9515
v  0.0000 0.9996 0.9515
v  0.6643 -0.6643 -0.9515
v  0.7068 -0.7068 0.9515
v  0.0000 -0.9996 0.9515
v  0.0000 -0.9395 -0.9515
v  0.6724 0.6724 2.8546
v  0.5603 0.5603 4.7577
v  0.7924 -0.0000 4.7577
v  0.9509 -0.0000 2.8546
v  0.7748 -0.0000 -2.8546
v  0.5014 -0.0000 -4.7577
v  0.3545 0.3545 -4.7577
v  0.5478 0.5478 -2.8546
v  0.0000 0.9509 2.8546
v  0.0000 0.7924 4.7577
v  0.0000 0.5014 -4.7577
v  0.0000 0.7748 -2.8546
v  0.6724 -0.6724 2.8546
v  0.5603 -0.5603 4.7577
v  0.0000 -0.7924 4.7577
v  0.0000 -0.9509 2.8546
v  0.0000 -0.7748 -2.8546
v  0.0000 -0.5014 -4.7577
v  0.3545 -0.3545 -4.7577
v  0.5478 -0.5478 -2.8546
v  5.3163 0.1196 -3.5016
v  5.3163 0.0897 -4.2191
v  0.6193 0.1174 0.2558
v  0.6193 0.1566 1.1954
v  5.3163 -0.0000 -2.5449
v  5.3163 0.0897 -2.7841
v  0.6193 0.1174 2.1351
v  0.6193 -0.0000 2.4483
v  5.3163 -0.0897 -4.2191
v  0.6193 -0.1174 0.2558
v  0.6193 -0.0000 -0.0574
v  5.3163 -0.0000 -4.4582
v  0.6193 -0.1566 1.1954
v  5.3163 -0.1196 -3.5016
v  5.3163 -0.0897 -2.7841
v  0.6193 -0.1174 2.1351
v  0.0717 2.6596 -6.5805
v  0.1174 0.4132 -4.6524
v  0.0000 0.4132 -5.0509
v  0.0000 2.6596 -6.7716
v  0.1566 0.4132 -3.4570
v  0.0955 2.6596 -6.0072
v  0.0717 2.6596 -5.4339
v  0.1174 0.4132 -2.2615
v  0.0000 2.6596 -5.2428
v  0.0000 0.4132 -1.8631
v  1.7066 1.4699 -6.2580
v  1.7066 1.4539 -6.6421
v  0.0000 1.4956 -5.5197
v  0.0000 1.5254 -4.8022
v  1.7066 1.4059 -5.7459
v  1.7066 1.4539 -5.8739
v  0.0000 1.4956 -4.0847
v  0.0000 1.4059 -3.8456
v  1.7066 1.3579 -6.6421
v  0.0000 1.3162 -5.5197
v  0.0000 1.4059 -5.7589
v  1.7066 1.4059 -6.7701
v  0.0000 1.2863 -4.8022
v  1.7066 1.3419 -6.2580
v  1.7066 1.3579 -5.8739
v  0.0000 1.3162 -4.0847
v  -0.6643 0.6643 -0.9515
v  -0.9395 -0.0000 -0.9515
v  -0.9996 -0.0000 0.9515
v  -0.7068 0.7068 0.9515
v  -0.6643 -0.6643 -0.9515
v  -0.7068 -0.7068 0.9515
v  -0.6724 0.6724 2.8546
v  -0.9509 -0.0000 2.8546
v  -0.7924 -0.0000 4.7577
v  -0.5603 0.5603 4.7577
v  -0.7748 -0.0000 -2.8546
v  -0.5478 0.5478 -2.8546
v  -0.3545 0.3545 -4.7577
v  -0.5014 -0.0000 -4.7577
v  -0.6724 -0.6724 2.8546
v  -0.5603 -0.5603 4.7577
v  -0.5478 -0.5478 -2.8546
v  -0.3545 -0.3545 -4.7577
v  -5.3163 0.1196 -3.5016
v  -0.6193 0.1566 1.1954
v  -0.6193 0.1174 0.2558
v  -5.3163 0.0897 -4.2191
v  -5.3163 -0.0000 -2.5449
v  -0.6193 -0.0000 2.4483
v  -0.6193 0.1174 2.1351
v  -5.3163 0.0897 -2.7841
v  -5.3163 -0.0897 -4.2191
v  -5.3163 -0.0000 -4.4582
v  -0.6193 -0.0000 -0.0574
v  -0.6193 -0.1174 0.2558
v  -0.6193 -0.1566 1.1954
v  -0.6193 -0.1174 2.1351
v  -5.3163 -0.0897 -2.7841
v  -5.3163 -0.1196 -3.5016
v  -0.0717 2.6596 -6.5805
v  -0.1174 0.4132 -4.6524
v  -0.1566 0.4132 -3.4570
v  -0.1174 0.4132 -2.2615
v  -0.0717 2.6596 -5.4339
v  -0.0955 2.6596 -6.0072
v  -1.7066 1.4699 -6.2580
v  -0.0000 1.5254 -4.8022
v  -0.0000 1.4956 -5.5197
v  -1.7066 1.4539 -6.6421
v  -1.7066 1.4059 -5.7459
v  -0.0000 1.4956 -4.0847
v  -1.7066 1.4539 -5.8739
v  -1.7066 1.3579 -6.6421
v  -1.7066 1.4059 -6.7701
v  -0.0000 1.4059 -5.7589
v  -0.0000 1.3162 -5.5197
v  -0.0000 1.2863 -4.8022
v  -1.7066 1.3579 -5.8739
v  -1.7066 1.3419 -6.2580
v  -0.3229 1.0614 3.0052
v  -0.0000 1.1800 3.1786
v  -0.0000 1.3090 2.3385
v  -0.4359 1.1697 2.3385
v  0.3229 1.0614 3.0052
v  0.4359 1.1697 2.3385
v  0.3229 1.1078 1.6997
v  -0.0000 1.1897 1.4623
v  -0.3229 1.1078 1.6997
v  -0.0000 0.8033 3.4312
v  0.4359 0.6683 3.2385
v  -0.4359 0.6683 3.2385
v  0.5812 0.6683 2.3385
v  0.4359 0.7112 1.4029
v  -0.0000 0.9429 0.9511
v  -0.4359 0.7112 1.4029
v  -0.5812 0.6683 2.3385
v  0.5041 0.5041 4.8348
v  0.7129 -0.0000 4.8348
v  0.0000 0.7167 4.8348
v  0.0924 -0.5950 4.7577
v  0.0000 -0.5333 4.8348
v  0.0000 -0.7115 4.8348
v  0.5041 -0.5041 4.8348
v  -0.7129 -0.0000 4.8348
v  -0.5041 0.5041 4.8348
v  -0.0924 -0.5950 4.7577
v  -0.5041 -0.5041 4.8348
v  0.0924 0.5950 4.7577
v  0.0000 0.5333 4.8348
v  -0.0924 0.5950 4.7577
v  0.4478 0.4478 4.7577
v  0.6333 -0.0000 4.7577
v  0.4478 -0.4478 4.7577
v  -0.6333 -0.0000 4.7577
v  -0.4478 0.4478 4.7577
v  -0.4478 -0.4478 4.7577
v  0.4478 0.4478 3.5363
v  0.6333 -0.0000 3.5363
v  0.0924 0.5950 3.5363
v  0.4478 -0.4478 3.5363
v  0.0924 -0.5950 3.5363
v  -0.6333 -0.0000 3.5363
v  -0.4478 0.4478 3.5363
v  -0.0924 0.5950 3.5363
v  -0.0924 -0.5950 3.5363
v  -0.4478 -0.4478 3.5363
# 173 vertices

vn 0.7059 0.7059 -0.0585
vn 0.7071 0.7071 -0.0030
vn 1.0000 -0.0000 -0.0030
vn 0.9983 0.0000 -0.0585
vn -0.0000 0.9983 -0.0585
vn 0.0000 1.0000 -0.0030
vn 0.7059 -0.7059 -0.0585
vn 0.7071 -0.7071 -0.0030
vn 0.0000 -1.0000 -0.0030
vn 0.0000 -0.9983 -0.0585
vn 0.7061 0.7061 0.0539
vn 0.7012 0.7017 0.1262
vn 0.9916 -0.0000 0.1292
vn 0.9985 -0.0000 0.0539
vn 0.9935 0.0000 -0.1135
vn 0.9898 -0.0000 -0.1422
vn 0.6999 0.6999 -0.1422
vn 0.7025 0.7025 -0.1135
vn 0.0000 0.9985 0.0539
vn -0.0000 0.9922 0.1246
vn 0.0000 0.9898 -0.1422
vn -0.0000 0.9935 -0.1135
vn 0.7061 -0.7061 0.0539
vn 0.7012 -0.7010 0.1303
vn 0.0000 -0.9914 0.1308
vn 0.0000 -0.9985 0.0539
vn 0.0000 -0.9935 -0.1135
vn 0.0000 -0.9898 -0.1422
vn 0.6999 -0.6999 -0.1422
vn 0.7025 -0.7025 -0.1135
vn -0.0129 0.9997 -0.0208
vn -0.2434 0.9340 -0.2613
vn -0.1112 0.9862 -0.1229
vn 0.0287 0.9994 0.0208
vn 0.7284 -0.0000 0.6852
vn 0.1294 0.9846 0.1180
vn 0.2801 0.9235 0.2622
vn -0.2434 -0.9340 -0.2613
vn -0.1112 -0.9862 -0.1229
vn -0.6837 0.0000 -0.7297
vn 0.0287 -0.9994 0.0208
vn -0.0129 -0.9997 -0.0208
vn 0.1294 -0.9846 0.1180
vn 0.2801 -0.9235 0.2622
vn 0.9584 -0.1727 -0.2271
vn 0.9911 -0.0745 -0.1104
vn 0.0000 -0.6152 -0.7884
vn 0.9985 0.0505 0.0192
vn 0.9998 0.0069 -0.0192
vn 0.9850 0.1471 0.0901
vn 0.9071 0.3506 0.2331
vn 0.0000 0.8304 0.5572
vn 0.0166 0.9997 -0.0187
vn -0.1420 0.9574 -0.2514
vn -0.0686 0.9876 -0.1410
vn 0.0484 0.9987 0.0187
vn 0.7440 0.0000 0.6682
vn 0.1475 0.9820 0.1178
vn 0.2956 0.9191 0.2605
vn 0.7440 -0.0000 0.6682
vn -0.1420 -0.9574 -0.2514
vn -0.0686 -0.9876 -0.1410
vn -0.5098 0.0000 -0.8603
vn 0.0484 -0.9987 0.0187
vn 0.0166 -0.9997 -0.0187
vn 0.1475 -0.9820 0.1178
vn 0.2956 -0.9191 0.2605
vn -0.7059 0.7059 -0.0585
vn -0.9983 0.0000 -0.0585
vn -1.0000 0.0000 -0.0030
vn -0.7071 0.7071 -0.0030
vn -0.7059 -0.7059 -0.0585
vn -0.7071 -0.7071 -0.0030
vn -0.7061 0.7061 0.0539
vn -0.9985 -0.0000 0.0539
vn -0.9916 -0.0000 0.1292
vn -0.7012 0.7017 0.1262
vn -0.9935 0.0000 -0.1135
vn -0.7025 0.7025 -0.1135
vn -0.6999 0.6999 -0.1422
vn -0.9898 -0.0000 -0.1422
vn -0.7061 -0.7061 0.0539
vn -0.7012 -0.7010 0.1303
vn -0.7025 -0.7025 -0.1135
vn -0.6999 -0.6999 -0.1422
vn 0.0129 0.9997 -0.0208
vn -0.0287 0.9994 0.0208
vn 0.1112 0.9862 -0.1229
vn 0.2434 0.9340 -0.2613
vn -0.7284 -0.0000 0.6852
vn -0.2801 0.9235 0.2622
vn -0.1294 0.9846 0.1180
vn 0.2434 -0.9340 -0.2613
vn 0.6837 0.0000 -0.7297
vn 0.1112 -0.9862 -0.1229
vn -0.0287 -0.9994 0.0208
vn -0.2801 -0.9235 0.2622
vn -0.1294 -0.9846 0.1180
vn 0.0129 -0.9997 -0.0208
vn -0.9584 -0.1727 -0.2271
vn -0.9911 -0.0745 -0.1104
vn -0.9985 0.0505 0.0192
vn -0.9071 0.3506 0.2331
vn -0.9850 0.1471 0.0901
vn -0.9998 0.0069 -0.0192
vn -0.0166 0.9997 -0.0187
vn -0.0484 0.9987 0.0187
vn 0.0686 0.9876 -0.1410
vn 0.1420 0.9574 -0.2514
vn -0.7440 0.0000 0.6682
vn -0.7440 -0.0000 0.6682
vn -0.2956 0.9191 0.2605
vn -0.1475 0.9820 0.1178
vn 0.1420 -0.9574 -0.2514
vn 0.5098 0.0000 -0.8603
vn 0.0686 -0.9876 -0.1410
vn -0.0484 -0.9987 0.0187
vn -0.2956 -0.9191 0.2605
vn -0.1475 -0.9820 0.1178
vn -0.0166 -0.9997 -0.0187
vn 1.0000 -0.0000 0.0000
vn 0.0000 1.0000 -0.0000
vn 1.0000 0.0000 -0.0000
vn -1.0000 -0.0000 0.0000
vn -1.0000 0.0000 -0.0000
vn -0.6704 0.6472 0.3629
vn 0.0000 0.8242 0.5664
vn 0.0000 0.9998 0.0188
vn -0.7182 0.6957 0.0139
vn 0.6704 0.6472 0.3629
vn 0.7182 0.6957 0.0139
vn 0.6804 0.6941 -0.2352
vn -0.0000 0.9148 -0.4040
vn -0.6804 0.6941 -0.2352
vn 0.0000 0.5940 0.8045
vn 0.7469 0.4509 0.4888
vn -0.7469 0.4509 0.4888
vn 0.9466 0.3223 0.0117
vn 0.7852 0.5278 -0.3239
vn -0.0000 0.8364 -0.5481
vn -0.7852 0.5278 -0.3239
vn -0.9466 0.3223 0.0117
vn 0.1215 0.1236 0.9849
vn 0.1692 -0.0000 0.9856
vn 0.0000 0.3218 0.9468
vn 0.4992 0.8665 -0.0040
vn 0.0000 0.0000 1.0000
vn 0.0000 -0.3103 0.9506
vn 0.1190 -0.1183 0.9858
vn -0.1692 -0.0000 0.9856
vn -0.1215 0.1236 0.9849
vn -0.4992 0.8665 -0.0040
vn -0.1190 -0.1183 0.9858
vn 0.5066 -0.8622 0.0038
vn -0.5066 -0.8622 0.0038
vn -0.7084 -0.7058 0.0003
vn -1.0000 0.0000 -0.0026
vn -0.7066 0.7076 -0.0037
vn 1.0000 0.0000 -0.0026
vn 0.7084 -0.7058 0.0003
vn 0.7066 0.7076 -0.0037
vn -0.7071 -0.7071 -0.0000
vn 0.5556 -0.8315 -0.0000
vn -0.7071 0.7071 -0.0000
vn 0.5556 0.8315 -0.0000
vn 0.7071 -0.7071 -0.0000
vn -0.5556 -0.8315 -0.0000
vn -0.5556 0.8315 -0.0000
vn 0.7071 0.7071 -0.0000
# 169 vertex normals

vt 0.8750 0.4000 1.0000
vt 0.8750 0.6000 1.0000
vt 0.7500 0.6000 1.0000
vt 0.7500 0.4000 1.0000
vt 0.0000 0.4000 1.0000
vt 0.0000 0.6000 1.0000
vt -0.1250 0.6000 1.0000
vt -0.1250 0.4000 1.0000
vt 0.6250 0.4000 1.0000
vt 0.6250 0.6000 1.0000
vt 0.5000 0.6000 1.0000
vt 0.5000 0.4000 1.0000
vt 0.8750 0.8000 1.0000
vt 0.8750 1.0000 1.0000
vt 0.7500 1.0000 1.0000
vt 0.7500 0.8000 1.0000
vt 0.7500 0.2000 1.0000
vt 0.7500 0.0000 1.0000
vt 0.8750 0.0000 1.0000
vt 0.8750 0.2000 1.0000
vt 0.0000 0.8000 1.0000
vt 0.0000 1.0000 1.0000
vt -0.1250 1.0000 1.0000
vt -0.1250 0.8000 1.0000
vt -0.1250 0.2000 1.0000
vt -0.1250 0.0000 1.0000
vt 0.0000 0.0000 1.0000
vt 0.0000 0.2000 1.0000
vt 0.6250 0.8000 1.0000
vt 0.6250 1.0000 1.0000
vt 0.5000 1.0000 1.0000
vt 0.5000 0.8000 1.0000
vt 0.5000 0.2000 1.0000
vt 0.5000 0.0000 1.0000
vt 0.6250 0.0000 1.0000
vt 0.6250 0.2000 1.0000
vt 0.8327 0.5000 0.0000
vt 0.9036 0.9518 0.0000
vt 0.1947 0.9896 0.0000
vt 0.1238 0.5000 0.0000
vt 0.7381 0.5000 0.0000
vt 0.7618 1.0000 0.0000
vt 0.0529 1.0000 0.0000
vt 0.0292 0.5000 0.0000
vt 0.0964 0.0000 0.0000
vt 0.8053 0.0000 0.0000
vt 0.7817 0.5000 0.0000
vt 0.0728 0.5000 0.0000
vt 0.8762 0.5000 0.0000
vt 0.1673 0.5000 0.0000
vt 0.2382 0.1191 0.0000
vt 0.9471 0.0083 0.0000
vt 0.8053 1.0000 0.0000
vt 0.0964 1.0000 0.0000
vt 0.0529 0.0000 0.0000
vt 0.7618 0.0000 0.0000
vt 0.0529 0.0083 0.0000
vt 0.7618 0.1191 0.0000
vt 0.8053 0.9896 0.0000
vt 0.0964 0.9518 0.0000
vt 0.0000 0.0000 0.0000
vt 0.5000 0.0000 0.0000
vt 0.5000 0.5000 0.0000
vt 0.0000 0.5000 0.0000
vt 1.0000 0.0000 0.0000
vt 1.0000 0.5000 0.0000
vt 1.0000 1.0000 0.0000
vt 0.5000 0.7500 0.0000
vt 0.0000 1.0000 0.0000
vt 0.5000 1.0000 0.0000
vt 0.5258 1.0000 1.0000
vt -0.0258 1.0000 1.0000
vt 0.0395 1.0000 1.0000
vt 0.4605 1.0000 1.0000
# 74 texture coords

o Cylinder001
g Cylinder001
usemtl wire_135110008
s 1
f 1/1/1 2/2/2 3/3/3 4/4/4 
f 5/5/5 6/6/6 2/7/2 1/8/1 
f 7/9/7 8/10/8 9/11/9 10/12/10 
f 4/4/4 3/3/3 8/10/8 7/9/7 
f 11/13/11 12/14/12 13/15/13 14/16/14 
f 2/2/2 11/13/11 14/16/14 3/3/3 
f 15/17/15 16/18/16 17/19/17 18/20/18 
f 4/4/4 15/17/15 18/20/18 1/1/1 
f 19/21/19 20/22/20 12/23/12 11/24/11 
f 6/6/6 19/21/19 11/24/11 2/7/2 
f 18/25/18 17/26/17 21/27/21 22/28/22 
f 1/8/1 18/25/18 22/28/22 5/5/5 
f 23/29/23 24/30/24 25/31/25 26/32/26 
f 8/10/8 23/29/23 26/32/26 9/11/9 
f 27/33/27 28/34/28 29/35/29 30/36/30 
f 10/12/10 27/33/27 30/36/30 7/9/7 
f 14/16/14 13/15/13 24/30/24 23/29/23 
f 3/3/3 14/16/14 23/29/23 8/10/8 
f 30/36/30 29/35/29 16/18/16 15/17/15 
f 7/9/7 30/36/30 15/17/15 4/4/4 
f 31/37/31 32/38/32 33/39/33 34/40/34 
f 35/41/35 36/42/36 37/43/37 38/44/35 
f 39/45/38 40/46/39 41/47/40 42/48/40 
f 43/49/41 44/50/42 45/51/43 46/52/44 
f 40/53/39 39/54/38 44/50/42 43/49/41 
f 37/55/37 36/56/36 31/37/31 34/40/34 
f 46/57/44 45/58/43 35/41/35 38/44/35 
f 33/59/33 32/60/32 42/48/40 41/47/40 
f 47/45/45 48/46/46 49/47/47 50/48/47 
f 51/49/48 52/50/49 53/51/50 54/52/51 
f 48/53/46 47/54/45 52/50/49 51/49/48 
f 54/57/51 53/58/50 55/41/52 56/44/52 
f 57/37/53 58/38/54 59/39/55 60/40/56 
f 61/41/57 62/42/58 63/43/59 64/44/60 
f 65/45/61 66/46/62 67/47/63 68/48/63 
f 69/49/64 70/50/65 71/51/66 72/52/67 
f 66/53/62 65/54/61 70/50/65 69/49/64 
f 63/55/59 62/56/58 57/37/53 60/40/56 
f 72/57/67 71/58/66 61/41/57 64/44/60 
f 59/59/55 58/60/54 68/48/63 67/47/63 
f 73/1/68 74/4/69 75/3/70 76/2/71 
f 5/5/5 73/8/68 76/7/71 6/6/6 
f 77/9/72 10/12/10 9/11/9 78/10/73 
f 74/4/69 77/9/72 78/10/73 75/3/70 
f 79/13/74 80/16/75 81/15/76 82/14/77 
f 76/2/71 75/3/70 80/16/75 79/13/74 
f 83/17/78 84/20/79 85/19/80 86/18/81 
f 74/4/69 73/1/68 84/20/79 83/17/78 
f 19/21/19 79/24/74 82/23/77 20/22/20 
f 6/6/6 76/7/71 79/24/74 19/21/19 
f 84/25/79 22/28/22 21/27/21 85/26/80 
f 73/8/68 5/5/5 22/28/22 84/25/79 
f 87/29/82 26/32/26 25/31/25 88/30/83 
f 78/10/73 9/11/9 26/32/26 87/29/82 
f 27/33/27 89/36/84 90/35/85 28/34/28 
f 10/12/10 77/9/72 89/36/84 27/33/27 
f 80/16/75 87/29/82 88/30/83 81/15/76 
f 75/3/70 78/10/73 87/29/82 80/16/75 
f 89/36/84 83/17/78 86/18/81 90/35/85 
f 77/9/72 74/4/69 83/17/78 89/36/84 
f 91/37/86 92/40/87 93/39/88 94/38/89 
f 95/41/90 96/44/90 97/43/91 98/42/92 
f 99/45/93 100/48/94 101/47/94 102/46/95 
f 103/49/96 104/52/97 105/51/98 106/50/99 
f 102/53/95 103/49/96 106/50/99 99/54/93 
f 97/55/91 92/40/87 91/37/86 98/56/92 
f 104/57/97 96/44/90 95/41/90 105/58/98 
f 93/59/88 101/47/94 100/48/94 94/60/89 
f 107/45/100 50/48/47 49/47/47 108/46/101 
f 109/49/102 110/52/103 111/51/104 112/50/105 
f 108/53/101 109/49/102 112/50/105 107/54/100 
f 110/57/103 56/44/52 55/41/52 111/58/104 
f 113/37/106 114/40/107 115/39/108 116/38/109 
f 117/41/110 64/44/111 118/43/112 119/42/113 
f 120/45/114 121/48/115 122/47/115 123/46/116 
f 124/49/117 72/52/118 125/51/119 126/50/120 
f 123/53/116 124/49/117 126/50/120 120/54/114 
f 118/55/112 114/40/107 113/37/106 119/56/113 
f 72/57/118 64/44/111 117/41/110 125/58/119 
f 115/59/108 122/47/115 121/48/115 116/60/109 
f 39/54/121 42/48/121 32/60/121 31/37/121 36/56/121 35/41/121 45/58/121 44/50/121 
f 50/48/122 107/45/122 112/50/122 111/51/122 55/41/122 53/58/122 52/50/122 47/54/122 
f 57/37/123 62/56/123 61/41/123 71/58/123 70/50/123 65/54/123 68/48/123 58/60/123 
f 94/38/124 100/48/124 99/45/124 106/50/124 105/51/124 95/41/124 98/42/124 91/37/124 
f 116/38/125 121/48/125 120/45/125 126/50/125 125/51/125 117/41/125 119/42/125 113/37/125 
f 127/61/126 128/62/127 129/63/128 130/64/129 
f 128/62/127 131/65/130 132/66/131 129/63/128 
f 129/63/128 132/66/131 133/67/132 134/68/133 
f 130/64/129 129/63/128 134/68/133 135/69/134 
f 136/63/135 137/66/136 131/67/130 128/70/127 
f 138/64/137 136/63/135 128/70/127 127/69/126 
f 139/63/138 140/66/139 133/67/132 132/70/131 
f 137/64/136 139/63/138 132/70/131 131/69/130 
f 141/63/140 142/66/141 135/67/134 134/68/133 
f 140/64/139 141/63/140 134/68/133 133/69/132 
f 143/63/142 138/66/137 127/67/126 130/70/129 
f 142/64/141 143/63/142 130/70/129 135/69/134 
f 13/15/13 12/14/12 144/14/143 145/15/144 
f 12/23/12 20/22/20 146/22/145 144/23/143 
f 147/71/146 148/31/147 149/31/148 
f 24/30/24 13/15/13 145/15/144 150/30/149 
f 82/14/77 81/15/76 151/15/150 152/14/151 
f 20/22/20 82/23/77 152/23/151 146/22/145 
f 149/31/148 148/31/147 153/71/152 
f 81/15/76 88/30/83 154/30/153 151/15/150 
f 155/72/154 156/73/147 148/74/147 147/71/146 
f 156/73/147 157/72/155 153/71/152 148/74/147 
f 144/14/143 158/14/156 159/15/157 145/15/144 
f 145/15/144 159/15/157 160/30/158 150/30/149 
f 151/15/150 161/15/159 162/14/160 152/14/151 
f 154/30/153 163/30/161 161/15/159 151/15/150 
f 157/72/155 156/22/147 146/22/145 
f 146/22/145 155/72/154 158/23/156 144/23/143 
f 154/30/153 88/30/83 25/31/25 149/31/148 
f 149/31/148 25/31/25 24/30/24 150/30/149 
f 153/71/152 163/30/161 154/30/153 149/31/148 
f 149/31/148 150/30/149 160/30/158 147/71/146 
f 146/22/145 152/23/151 162/23/160 157/72/155 
f 146/22/145 156/22/147 155/72/154 
f 159/15/157 158/14/156 164/14/162 165/15/125 
f 158/23/156 155/72/154 166/72/163 164/23/162 
f 147/71/146 160/30/158 167/30/164 168/71/165 
f 160/30/158 159/15/157 165/15/125 167/30/164 
f 162/14/160 161/15/159 169/15/123 170/14/166 
f 157/72/155 162/23/160 170/23/166 171/72/167 
f 163/30/161 153/71/152 172/71/168 173/30/169 
f 161/15/159 163/30/161 173/30/169 169/15/123 
f 153/71/152 157/72/155 171/72/167 172/71/168 
f 155/72/154 147/71/146 168/71/165 166/72/163 
# 125 polygons - 4 triangles

