# 3ds Max Wavefront OBJ Exporter v0.97b - (c)2007 guruware
# File Created: 03.05.2019 00:52:44

#
# object GeoSphere001
#

v  0.0000 1.0000 -0.0000
v  0.8944 0.4472 -0.0000
v  0.2764 0.4472 -0.8507
v  -0.7236 0.4472 -0.5257
v  -0.7236 0.4472 0.5257
v  0.2764 0.4472 0.8507
v  0.7236 -0.4472 0.5257
v  0.7236 -0.4472 -0.5257
v  -0.2764 -0.4472 -0.8507
v  -0.8944 -0.4472 0.0000
v  -0.2764 -0.4472 0.8507
v  0.0000 -1.0000 -0.0000
# 12 vertices

vn -0.0000 1.0000 -0.0000
vn 0.8944 0.4472 -0.0000
vn 0.2764 0.4472 -0.8507
vn -0.7236 0.4472 -0.5257
vn -0.7236 0.4472 0.5257
vn 0.2764 0.4472 0.8507
vn 0.7236 -0.4472 0.5257
vn 0.7236 -0.4472 -0.5257
vn -0.2764 -0.4472 -0.8507
vn -0.8944 -0.4472 -0.0000
vn -0.2764 -0.4472 0.8507
vn 0.0000 -1.0000 -0.0000
# 12 vertex normals

o GeoSphere001
g GeoSphere001
f 1//1 2//2 3//3 
f 1//1 3//3 4//4 
f 1//1 4//4 5//5 
f 1//1 5//5 6//6 
f 1//1 6//6 2//2 
f 2//2 7//7 8//8 
f 3//3 8//8 9//9 
f 4//4 9//9 10//10 
f 5//5 10//10 11//11 
f 6//6 11//11 7//7 
f 8//8 3//3 2//2 
f 9//9 4//4 3//3 
f 10//10 5//5 4//4 
f 11//11 6//6 5//5 
f 7//7 2//2 6//6 
f 12//12 9//9 8//8 
f 12//12 10//10 9//9 
f 12//12 11//11 10//10 
f 12//12 7//7 11//11 
f 12//12 8//8 7//7 
# 20 faces

