# 3ds Max Wavefront OBJ Exporter v0.97b - (c)2007 guruware
# File Created: 02.05.2020 23:56:22

mtllib Teapot.mtl

#
# object Teapot001
#

v  1.1687 1.8318 -0.0080
v  0.6431 1.8318 0.9164
v  0.6370 1.8985 0.9061
v  1.1567 1.8985 -0.0080
v  0.6557 1.8985 0.9378
v  1.1934 1.8985 -0.0080
v  0.6819 1.8318 0.9825
v  1.2450 1.8318 -0.0080
v  -0.4733 1.8318 0.9164
v  -0.4457 1.8985 0.9061
v  -0.4565 1.8985 0.9378
v  -0.4816 1.8318 0.9825
v  -0.9683 1.8318 -0.0080
v  -0.9563 1.8985 -0.0080
v  -0.9931 1.8985 -0.0080
v  -1.0447 1.8318 -0.0080
v  -0.4428 1.8318 -0.9325
v  -0.4367 1.8985 -0.9221
v  -0.4554 1.8985 -0.9539
v  -0.4816 1.8318 -0.9985
v  0.6431 1.8318 -0.9325
v  0.6370 1.8985 -0.9221
v  0.6557 1.8985 -0.9539
v  0.6819 1.8318 -0.9985
v  0.8471 1.0473 1.2637
v  1.5701 1.0473 -0.0080
v  0.8256 0.3986 1.2271
v  1.5277 0.3986 -0.0080
v  -0.6468 1.0473 1.2637
v  -0.6252 0.3986 1.2271
v  -1.3698 1.0473 -0.0080
v  -1.3273 0.3986 -0.0080
v  -0.6468 1.0473 -1.2798
v  -0.6252 0.3986 -1.2431
v  0.8471 1.0473 -1.2798
v  0.8256 0.3986 -1.2431
v  0.6539 0.0594 0.9348
v  1.1899 0.0594 -0.0080
v  -0.4536 0.0594 0.9348
v  -0.9895 0.0594 -0.0080
v  -0.4536 0.0594 -0.9508
v  0.6539 0.0594 -0.9508
v  0.4966 0.0170 0.6670
v  0.8804 0.0170 -0.0080
v  0.1002 0.0000 -0.0080
v  -0.2963 0.0170 0.6670
v  -0.6800 0.0170 -0.0080
v  -0.2963 0.0170 -0.6830
v  0.4966 0.0170 -0.6830
v  -1.6032 1.5821 0.1446
v  -1.5761 1.5392 -0.0080
v  -1.1210 1.5455 -0.0080
v  -1.1012 1.5901 0.1446
v  -1.9136 1.5260 0.1446
v  -1.8616 1.4947 -0.0080
v  -2.0199 1.3738 0.1446
v  -1.9606 1.3738 -0.0080
v  -1.6536 1.6617 0.1446
v  -1.0645 1.6728 0.1446
v  -2.0103 1.5842 0.1446
v  -2.1302 1.3738 0.1446
v  -1.6807 1.7046 -0.0080
v  -1.0447 1.7173 -0.0080
v  -2.0623 1.6155 -0.0080
v  -2.1895 1.3738 -0.0080
v  -1.6536 1.6617 -0.1607
v  -1.0645 1.6728 -0.1607
v  -2.0103 1.5842 -0.1607
v  -2.1302 1.3738 -0.1607
v  -1.6032 1.5821 -0.1607
v  -1.1012 1.5901 -0.1607
v  -1.9136 1.5260 -0.1607
v  -2.0199 1.3738 -0.1607
v  -1.9567 1.1273 0.1446
v  -1.9068 1.1576 -0.0080
v  -1.7571 0.8592 0.1446
v  -1.7344 0.9032 -0.0080
v  -1.4065 0.6275 0.1446
v  -1.4263 0.6869 -0.0080
v  -2.0492 1.0712 0.1446
v  -1.7993 0.7775 0.1446
v  -1.3698 0.5173 0.1446
v  -2.0991 1.0410 -0.0080
v  -1.8220 0.7336 -0.0080
v  -1.3500 0.4579 -0.0080
v  -2.0492 1.0712 -0.1607
v  -1.7993 0.7775 -0.1607
v  -1.3698 0.5173 -0.1607
v  -1.9567 1.1273 -0.1607
v  -1.7571 0.8592 -0.1607
v  -1.4065 0.6275 -0.1607
v  1.8858 1.1252 0.2737
v  1.8330 1.2297 -0.0080
v  1.3977 1.0876 -0.0080
v  1.3977 0.9244 0.3278
v  2.0460 1.4980 0.1733
v  1.9800 1.5371 -0.0080
v  2.2796 1.8318 0.1192
v  2.1609 1.8318 -0.0080
v  1.9838 0.9313 0.2737
v  1.3977 0.6212 0.3278
v  2.1684 1.4256 0.1733
v  2.5001 1.8318 0.1192
v  2.0365 0.8268 -0.0080
v  1.3977 0.4579 -0.0080
v  2.2344 1.3865 -0.0080
v  2.6188 1.8318 -0.0080
v  1.9838 0.9313 -0.2898
v  1.3977 0.6212 -0.3438
v  2.1684 1.4256 -0.1893
v  2.5001 1.8318 -0.1352
v  1.8858 1.1252 -0.2898
v  1.3977 0.9244 -0.3438
v  2.0460 1.4980 -0.1893
v  2.2796 1.8318 -0.1352
v  2.3576 1.8732 0.1060
v  2.2316 1.8699 -0.0080
v  2.3764 1.8740 0.0815
v  2.2683 1.8699 -0.0080
v  2.3164 1.8318 0.0683
v  2.2372 1.8318 -0.0080
v  2.5917 1.8793 0.1060
v  2.5772 1.8817 0.0815
v  2.4634 1.8318 0.0683
v  2.7178 1.8826 -0.0080
v  2.6853 1.8858 -0.0080
v  2.5425 1.8318 -0.0080
v  2.5917 1.8793 -0.1220
v  2.5772 1.8817 -0.0975
v  2.4634 1.8318 -0.0843
v  2.3576 1.8732 -0.1220
v  2.3764 1.8740 -0.0975
v  2.3164 1.8318 -0.0843
v  0.3772 2.3406 -0.0080
v  0.1002 2.4042 -0.0080
v  0.2413 2.3406 0.2318
v  0.1923 2.2007 0.1486
v  0.2811 2.2007 -0.0080
v  0.1777 2.0607 0.1240
v  0.2528 2.0607 -0.0080
v  -0.0409 2.3406 0.2318
v  0.0081 2.2007 0.1486
v  0.0226 2.0607 0.1240
v  -0.1768 2.3406 -0.0080
v  -0.0807 2.2007 -0.0080
v  -0.0525 2.0607 -0.0080
v  -0.0409 2.3406 -0.2479
v  0.0081 2.2007 -0.1646
v  0.0226 2.0607 -0.1401
v  0.2413 2.3406 -0.2479
v  0.1923 2.2007 -0.1646
v  0.1777 2.0607 -0.1401
v  0.3228 1.9759 0.3711
v  0.5383 1.9759 -0.0080
v  0.5110 1.9166 0.6914
v  0.9086 1.9166 -0.0080
v  0.6044 1.8318 0.8504
v  1.0924 1.8318 -0.0080
v  -0.1225 1.9759 0.3711
v  -0.3106 1.9166 0.6914
v  -0.4040 1.8318 0.8504
v  -0.3380 1.9759 -0.0080
v  -0.7083 1.9166 -0.0080
v  -0.8920 1.8318 -0.0080
v  -0.1225 1.9759 -0.3871
v  -0.3106 1.9166 -0.7075
v  -0.4040 1.8318 -0.8665
v  0.3228 1.9759 -0.3871
v  0.5110 1.9166 -0.7075
v  0.6044 1.8318 -0.8665
# 170 vertices

vn -0.9842 -0.1771 0.0000
vn -0.4951 -0.1776 -0.8505
vn -0.3066 0.7924 -0.5273
vn -0.6139 0.7894 0.0000
vn 0.2725 0.8398 0.4696
vn 0.5421 0.8403 -0.0000
vn 0.4397 0.4850 0.7560
vn 0.8750 0.4841 -0.0000
vn 0.5343 -0.3343 -0.7764
vn 0.2762 0.7536 -0.5965
vn -0.2763 0.8381 0.4704
vn -0.4394 0.4831 0.7574
vn 0.9841 -0.1770 0.0118
vn 0.6189 0.7854 0.0081
vn -0.5420 0.8404 -0.0003
vn -0.8751 0.4840 -0.0001
vn 0.4951 -0.1776 0.8505
vn 0.3066 0.7924 0.5273
vn -0.2725 0.8398 -0.4696
vn -0.4397 0.4850 -0.7560
vn -0.4951 -0.1776 0.8505
vn -0.3066 0.7924 0.5273
vn 0.2725 0.8398 -0.4696
vn 0.4397 0.4850 -0.7560
vn 0.4972 0.1529 0.8541
vn 0.9883 0.1526 -0.0000
vn 0.4663 -0.3752 0.8011
vn 0.9270 -0.3751 -0.0000
vn -0.4972 0.1529 0.8541
vn -0.4663 -0.3752 0.8011
vn -0.9883 0.1526 -0.0000
vn -0.9270 -0.3751 -0.0000
vn -0.4972 0.1529 -0.8541
vn -0.4663 -0.3752 -0.8011
vn 0.4972 0.1529 -0.8541
vn 0.4663 -0.3752 -0.8011
vn 0.2618 -0.8531 0.4512
vn 0.5214 -0.8533 -0.0000
vn -0.2618 -0.8531 0.4512
vn -0.5214 -0.8533 0.0000
vn -0.2618 -0.8531 -0.4512
vn 0.2618 -0.8531 -0.4512
vn 0.0489 -0.9952 0.0844
vn 0.0975 -0.9952 -0.0000
vn 0.0000 -1.0000 -0.0000
vn -0.0489 -0.9952 0.0844
vn -0.0975 -0.9952 0.0000
vn -0.0489 -0.9952 -0.0844
vn 0.0489 -0.9952 -0.0844
vn 0.0598 -0.5738 0.8168
vn 0.0819 -0.9966 -0.0031
vn 0.0148 -0.9999 -0.0007
vn 0.0080 -0.4990 0.8666
vn 0.2594 -0.3799 0.8879
vn 0.4698 -0.8827 -0.0139
vn 0.4285 -0.0778 0.9002
vn 0.9727 -0.2317 -0.0151
vn -0.0701 0.6177 0.7833
vn -0.0141 0.7132 0.7008
vn -0.3755 0.5463 0.7487
vn -0.6410 0.0901 0.7622
vn -0.1297 0.9915 0.0028
vn -0.0195 0.9998 0.0003
vn -0.6303 0.7763 0.0068
vn -0.9943 0.1062 0.0045
vn -0.0670 0.6166 -0.7844
vn -0.0134 0.7128 -0.7012
vn -0.3708 0.5443 -0.7525
vn -0.6381 0.0822 -0.7656
vn 0.0555 -0.5779 -0.8142
vn 0.0072 -0.4993 -0.8664
vn 0.2619 -0.3929 -0.8815
vn 0.4377 -0.0734 -0.8961
vn 0.4648 0.2231 0.8568
vn 0.9116 0.4111 -0.0074
vn 0.3741 0.3919 0.8405
vn 0.7111 0.7030 -0.0115
vn 0.2276 0.3297 0.9162
vn 0.5654 0.8248 -0.0112
vn -0.5465 -0.2924 0.7847
vn -0.4084 -0.4789 0.7771
vn -0.4331 -0.7150 0.5488
vn -0.8795 -0.4759 0.0044
vn -0.6327 -0.7743 0.0061
vn -0.5096 -0.8604 0.0036
vn -0.5465 -0.2855 -0.7873
vn -0.4026 -0.4773 -0.7811
vn -0.4205 -0.7158 -0.5575
vn 0.4734 0.2199 -0.8529
vn 0.3790 0.3995 -0.8348
vn 0.2224 0.3366 -0.9150
vn -0.1442 0.4223 0.8949
vn -0.6772 0.7358 0.0044
vn -0.3191 0.9477 -0.0084
vn -0.0805 0.4139 0.9067
vn -0.4567 0.3994 0.7949
vn -0.8624 0.5056 0.0239
vn -0.3224 0.5440 0.7747
vn -0.7146 0.6985 0.0387
vn 0.5505 -0.3575 0.7544
vn 0.3715 -0.5717 0.7315
vn 0.5143 -0.1406 0.8460
vn 0.3214 -0.1373 0.9370
vn 0.7529 -0.6581 -0.0036
vn 0.4992 -0.8665 0.0006
vn 0.8778 -0.4786 -0.0198
vn 0.5739 -0.8187 -0.0207
vn 0.5574 -0.3468 -0.7543
vn 0.3741 -0.5678 -0.7333
vn 0.5160 -0.1480 -0.8437
vn 0.3230 -0.1683 -0.9313
vn -0.1283 0.4216 -0.8977
vn -0.0624 0.4155 -0.9074
vn -0.4370 0.3760 -0.8171
vn -0.2977 0.5337 -0.7915
vn -0.0986 0.8075 0.5816
vn -0.3542 0.9350 0.0179
vn 0.0494 0.8228 -0.5661
vn 0.6523 0.7578 0.0125
vn 0.4821 -0.4144 -0.7719
vn 0.7608 -0.6489 0.0123
vn 0.4919 0.3189 0.8101
vn -0.1288 0.9821 -0.1375
vn -0.1034 0.4731 -0.8749
vn 0.9888 0.1482 -0.0149
vn -0.0072 0.9999 -0.0124
vn -0.3570 0.9341 -0.0061
vn 0.5153 0.3022 -0.8020
vn -0.1291 0.9820 0.1378
vn -0.0950 0.4547 0.8855
vn -0.0901 0.8049 -0.5865
vn 0.0497 0.8315 0.5533
vn 0.4881 -0.4665 0.7377
vn 0.9548 0.2973 0.0000
vn 0.0000 1.0000 -0.0000
vn 0.4815 0.2957 0.8251
vn 0.4572 -0.4171 0.7855
vn 0.9099 -0.4148 0.0002
vn 0.3855 0.6409 0.6638
vn 0.7701 0.6379 0.0002
vn -0.4814 0.2958 0.8251
vn -0.4570 -0.4170 0.7856
vn -0.3854 0.6408 0.6640
vn -0.9548 0.2973 -0.0000
vn -0.9099 -0.4148 -0.0002
vn -0.7701 0.6379 -0.0002
vn -0.4815 0.2957 -0.8251
vn -0.4572 -0.4171 -0.7855
vn -0.3855 0.6409 -0.6638
vn 0.4814 0.2958 -0.8251
vn 0.4570 -0.4170 -0.7856
vn 0.3854 0.6408 -0.6640
vn 0.1007 0.9797 0.1734
vn 0.2015 0.9795 -0.0000
vn 0.1660 0.9437 0.2863
vn 0.3311 0.9436 -0.0000
vn 0.2105 0.9085 0.3610
vn 0.4191 0.9080 -0.0000
vn -0.1007 0.9797 0.1734
vn -0.1660 0.9437 0.2863
vn -0.2105 0.9085 0.3610
vn -0.2015 0.9795 0.0000
vn -0.3311 0.9436 0.0000
vn -0.4191 0.9080 0.0000
vn -0.1007 0.9797 -0.1734
vn -0.1660 0.9437 -0.2863
vn -0.2105 0.9085 -0.3610
vn 0.1007 0.9797 -0.1734
vn 0.1660 0.9437 -0.2863
vn 0.2105 0.9085 -0.3610
# 170 vertex normals

vt 2.0000 2.0000 0.0000
vt 1.3333 2.0000 0.0000
vt 1.3333 1.9667 0.0000
vt 2.0000 1.9667 0.0000
vt 1.3333 1.9333 0.0000
vt 2.0000 1.9333 0.0000
vt 1.3333 1.9000 0.0000
vt 2.0000 1.9000 0.0000
vt 0.6667 2.0000 0.0000
vt 0.6667 1.9667 0.0000
vt 0.6667 1.9333 0.0000
vt 0.6667 1.9000 0.0000
vt -0.0000 2.0000 0.0000
vt -0.0000 1.9667 0.0000
vt -0.0000 1.9333 0.0000
vt -0.0000 1.9000 0.0000
vt 1.3333 1.3000 0.0000
vt 2.0000 1.3000 0.0000
vt 1.3333 0.8000 0.0000
vt 2.0000 0.8000 0.0000
vt 0.6667 1.3000 0.0000
vt 0.6667 0.8000 0.0000
vt -0.0000 1.3000 0.0000
vt -0.0000 0.8000 0.0000
vt 1.3333 0.2667 0.0000
vt 2.0000 0.2667 0.0000
vt 0.6667 0.2667 0.0000
vt -0.0000 0.2667 0.0000
vt 1.3333 0.1333 0.0000
vt 2.0000 0.1333 0.0000
vt 1.3450 0.0984 0.0000
vt 1.6667 -0.0000 0.0000
vt 0.6667 0.1333 0.0000
vt 0.6667 0.0974 0.0000
vt 1.0000 -0.0000 0.0000
vt -0.0000 0.1333 0.0000
vt 0.5676 0.0984 0.0000
vt -0.0000 -0.0000 0.0000
vt 0.8333 0.8333 0.0000
vt 1.0000 0.8333 0.0000
vt 1.0000 1.0000 0.0000
vt 0.8333 1.0000 0.0000
vt 0.8333 0.6667 0.0000
vt 1.0000 0.6667 0.0000
vt 0.8333 0.5000 0.0000
vt 1.0000 0.5000 0.0000
vt 0.6667 0.8333 0.0000
vt 0.6667 1.0000 0.0000
vt 0.6667 0.6667 0.0000
vt 0.6667 0.5000 0.0000
vt 0.5000 0.8333 0.0000
vt 0.5000 1.0000 0.0000
vt 0.5000 0.6667 0.0000
vt 0.5000 0.5000 0.0000
vt 0.3333 0.8333 0.0000
vt 0.3333 1.0000 0.0000
vt 0.3333 0.6667 0.0000
vt 0.3333 0.5000 0.0000
vt 0.1667 0.8333 0.0000
vt 0.1667 1.0000 0.0000
vt 0.1667 0.6667 0.0000
vt 0.1667 0.5000 0.0000
vt -0.0000 0.8333 0.0000
vt -0.0000 1.0000 0.0000
vt -0.0000 0.6667 0.0000
vt -0.0000 0.5000 0.0000
vt 0.8333 0.3333 0.0000
vt 1.0000 0.3333 0.0000
vt 0.8333 0.1667 0.0000
vt 1.0000 0.1667 0.0000
vt 0.8333 -0.0000 0.0000
vt 0.6667 0.3333 0.0000
vt 0.6667 0.1667 0.0000
vt 0.6667 -0.0000 0.0000
vt 0.5000 0.3333 0.0000
vt 0.5000 0.1667 0.0000
vt 0.5000 -0.0000 0.0000
vt 0.3333 0.3333 0.0000
vt 0.3333 0.1667 0.0000
vt 0.3333 -0.0000 0.0000
vt 0.1667 0.3333 0.0000
vt 0.1667 0.1667 0.0000
vt 0.1667 -0.0000 0.0000
vt -0.0000 0.3333 0.0000
vt -0.0000 0.1667 0.0000
vt 0.6667 0.3000 0.0000
vt 0.5000 0.3000 0.0000
vt 0.5000 0.0000 0.0000
vt 0.6667 0.0000 0.0000
vt 0.6667 0.6000 0.0000
vt 0.5000 0.6000 0.0000
vt 0.6667 0.9000 0.0000
vt 0.5000 0.9000 0.0000
vt 0.8333 0.3000 0.0000
vt 0.8333 0.0000 0.0000
vt 0.8333 0.6000 0.0000
vt 0.8333 0.9000 0.0000
vt 1.0000 0.3000 0.0000
vt 1.0000 0.0000 0.0000
vt 1.0000 0.6000 0.0000
vt 1.0000 0.9000 0.0000
vt 0.1667 0.3000 0.0000
vt 0.0000 0.3000 0.0000
vt 0.0000 0.0000 0.0000
vt 0.1667 0.0000 0.0000
vt 0.1667 0.6000 0.0000
vt 0.0000 0.6000 0.0000
vt 0.1667 0.9000 0.0000
vt 0.0000 0.9000 0.0000
vt 0.3333 0.3000 0.0000
vt 0.3333 0.0000 0.0000
vt 0.3333 0.6000 0.0000
vt 0.3333 0.9000 0.0000
vt 0.6667 0.9333 0.0000
vt 0.5000 0.9333 0.0000
vt 0.6667 0.9667 0.0000
vt 0.5000 0.9667 0.0000
vt 0.8333 0.9333 0.0000
vt 0.8333 0.9667 0.0000
vt 1.0000 0.9333 0.0000
vt 1.0000 0.9667 0.0000
vt 0.1667 0.9333 0.0000
vt 0.0000 0.9333 0.0000
vt 0.1667 0.9667 0.0000
vt 0.0000 0.9667 0.0000
vt 0.0000 1.0000 0.0000
vt 0.3333 0.9333 0.0000
vt 0.3333 0.9667 0.0000
vt 0.7155 0.7495 0.0000
vt 0.6655 0.7514 0.0000
vt 0.3259 0.7495 0.0000
# 131 texture coords

o Teapot001
g Teapot001
usemtl wire_027177027
s 2
f 1/1/1 2/2/2 3/3/3 
f 3/3/3 4/4/4 1/1/1 
f 4/4/4 3/3/3 5/5/5 
f 5/5/5 6/6/6 4/4/4 
f 6/6/6 5/5/5 7/7/7 
f 7/7/7 8/8/8 6/6/6 
f 2/2/2 9/9/9 10/10/10 
f 10/10/10 3/3/3 2/2/2 
f 3/3/3 10/10/10 11/11/11 
f 11/11/11 5/5/5 3/3/3 
f 5/5/5 11/11/11 12/12/12 
f 12/12/12 7/7/7 5/5/5 
f 9/9/9 13/13/13 14/14/14 
f 14/14/14 10/10/10 9/9/9 
f 10/10/10 14/14/14 15/15/15 
f 15/15/15 11/11/11 10/10/10 
f 11/11/11 15/15/15 16/16/16 
f 16/16/16 12/12/12 11/11/11 
f 13/1/13 17/2/17 18/3/18 
f 18/3/18 14/4/14 13/1/13 
f 14/4/14 18/3/18 19/5/19 
f 19/5/19 15/6/15 14/4/14 
f 15/6/15 19/5/19 20/7/20 
f 20/7/20 16/8/16 15/6/15 
f 17/2/17 21/9/21 22/10/22 
f 22/10/22 18/3/18 17/2/17 
f 18/3/18 22/10/22 23/11/23 
f 23/11/23 19/5/19 18/3/18 
f 19/5/19 23/11/23 24/12/24 
f 24/12/24 20/7/20 19/5/19 
f 21/9/21 1/13/1 4/14/4 
f 4/14/4 22/10/22 21/9/21 
f 22/10/22 4/14/4 6/15/6 
f 6/15/6 23/11/23 22/10/22 
f 23/11/23 6/15/6 8/16/8 
f 8/16/8 24/12/24 23/11/23 
f 8/8/8 7/7/7 25/17/25 
f 25/17/25 26/18/26 8/8/8 
f 26/18/26 25/17/25 27/19/27 
f 27/19/27 28/20/28 26/18/26 
f 7/7/7 12/12/12 29/21/29 
f 29/21/29 25/17/25 7/7/7 
f 25/17/25 29/21/29 30/22/30 
f 30/22/30 27/19/27 25/17/25 
f 12/12/12 16/16/16 31/23/31 
f 31/23/31 29/21/29 12/12/12 
f 29/21/29 31/23/31 32/24/32 
f 32/24/32 30/22/30 29/21/29 
f 16/8/16 20/7/20 33/17/33 
f 33/17/33 31/18/31 16/8/16 
f 31/18/31 33/17/33 34/19/34 
f 34/19/34 32/20/32 31/18/31 
f 20/7/20 24/12/24 35/21/35 
f 35/21/35 33/17/33 20/7/20 
f 33/17/33 35/21/35 36/22/36 
f 36/22/36 34/19/34 33/17/33 
f 24/12/24 8/16/8 26/23/26 
f 26/23/26 35/21/35 24/12/24 
f 35/21/35 26/23/26 28/24/28 
f 28/24/28 36/22/36 35/21/35 
f 28/20/28 27/19/27 37/25/37 
f 37/25/37 38/26/38 28/20/28 
f 27/19/27 30/22/30 39/27/39 
f 39/27/39 37/25/37 27/19/27 
f 30/22/30 32/24/32 40/28/40 
f 40/28/40 39/27/39 30/22/30 
f 32/20/32 34/19/34 41/25/41 
f 41/25/41 40/26/40 32/20/32 
f 34/19/34 36/22/36 42/27/42 
f 42/27/42 41/25/41 34/19/34 
f 36/22/36 28/24/28 38/28/38 
f 38/28/38 42/27/42 36/22/36 
f 38/26/38 37/25/37 43/29/43 
f 43/29/43 44/30/44 38/26/38 
f 44/30/44 43/31/43 45/32/45 
f 37/25/37 39/27/39 46/33/46 
f 46/33/46 43/29/43 37/25/37 
f 43/29/43 46/34/46 45/35/45 
f 39/27/39 40/28/40 47/36/47 
f 47/36/47 46/33/46 39/27/39 
f 46/37/46 47/36/47 45/38/45 
f 40/26/40 41/25/41 48/29/48 
f 48/29/48 47/30/47 40/26/40 
f 47/30/47 48/31/48 45/32/45 
f 41/25/41 42/27/42 49/33/49 
f 49/33/49 48/29/48 41/25/41 
f 48/29/48 49/34/49 45/35/45 
f 42/27/42 38/28/38 44/36/44 
f 44/36/44 49/33/49 42/27/42 
f 49/37/49 44/36/44 45/38/45 
f 50/39/50 51/40/51 52/41/52 
f 52/41/52 53/42/53 50/39/50 
f 54/43/54 55/44/55 51/40/51 
f 51/40/51 50/39/50 54/43/54 
f 56/45/56 57/46/57 55/44/55 
f 55/44/55 54/43/54 56/45/56 
f 58/47/58 50/39/50 53/42/53 
f 53/42/53 59/48/59 58/47/58 
f 60/49/60 54/43/54 50/39/50 
f 50/39/50 58/47/58 60/49/60 
f 61/50/61 56/45/56 54/43/54 
f 54/43/54 60/49/60 61/50/61 
f 62/51/62 58/47/58 59/48/59 
f 59/48/59 63/52/63 62/51/62 
f 64/53/64 60/49/60 58/47/58 
f 58/47/58 62/51/62 64/53/64 
f 65/54/65 61/50/61 60/49/60 
f 60/49/60 64/53/64 65/54/65 
f 66/55/66 62/51/62 63/52/63 
f 63/52/63 67/56/67 66/55/66 
f 68/57/68 64/53/64 62/51/62 
f 62/51/62 66/55/66 68/57/68 
f 69/58/69 65/54/65 64/53/64 
f 64/53/64 68/57/68 69/58/69 
f 70/59/70 66/55/66 67/56/67 
f 67/56/67 71/60/71 70/59/70 
f 72/61/72 68/57/68 66/55/66 
f 66/55/66 70/59/70 72/61/72 
f 73/62/73 69/58/69 68/57/68 
f 68/57/68 72/61/72 73/62/73 
f 51/63/51 70/59/70 71/60/71 
f 71/60/71 52/64/52 51/63/51 
f 55/65/55 72/61/72 70/59/70 
f 70/59/70 51/63/51 55/65/55 
f 57/66/57 73/62/73 72/61/72 
f 72/61/72 55/65/55 57/66/57 
f 74/67/74 75/68/75 57/46/57 
f 57/46/57 56/45/56 74/67/74 
f 76/69/76 77/70/77 75/68/75 
f 75/68/75 74/67/74 76/69/76 
f 78/71/78 79/35/79 77/70/77 
f 77/70/77 76/69/76 78/71/78 
f 80/72/80 74/67/74 56/45/56 
f 56/45/56 61/50/61 80/72/80 
f 81/73/81 76/69/76 74/67/74 
f 74/67/74 80/72/80 81/73/81 
f 82/74/82 78/71/78 76/69/76 
f 76/69/76 81/73/81 82/74/82 
f 83/75/83 80/72/80 61/50/61 
f 61/50/61 65/54/65 83/75/83 
f 84/76/84 81/73/81 80/72/80 
f 80/72/80 83/75/83 84/76/84 
f 85/77/85 82/74/82 81/73/81 
f 81/73/81 84/76/84 85/77/85 
f 86/78/86 83/75/83 65/54/65 
f 65/54/65 69/58/69 86/78/86 
f 87/79/87 84/76/84 83/75/83 
f 83/75/83 86/78/86 87/79/87 
f 88/80/88 85/77/85 84/76/84 
f 84/76/84 87/79/87 88/80/88 
f 89/81/89 86/78/86 69/58/69 
f 69/58/69 73/62/73 89/81/89 
f 90/82/90 87/79/87 86/78/86 
f 86/78/86 89/81/89 90/82/90 
f 91/83/91 88/80/88 87/79/87 
f 87/79/87 90/82/90 91/83/91 
f 75/84/75 89/81/89 73/62/73 
f 73/62/73 57/66/57 75/84/75 
f 77/85/77 90/82/90 89/81/89 
f 89/81/89 75/84/75 77/85/77 
f 79/38/79 91/83/91 90/82/90 
f 90/82/90 77/85/77 79/38/79 
f 92/86/92 93/87/93 94/88/94 
f 94/88/94 95/89/95 92/86/92 
f 96/90/96 97/91/97 93/87/93 
f 93/87/93 92/86/92 96/90/96 
f 98/92/98 99/93/99 97/91/97 
f 97/91/97 96/90/96 98/92/98 
f 100/94/100 92/86/92 95/89/95 
f 95/89/95 101/95/101 100/94/100 
f 102/96/102 96/90/96 92/86/92 
f 92/86/92 100/94/100 102/96/102 
f 103/97/103 98/92/98 96/90/96 
f 96/90/96 102/96/102 103/97/103 
f 104/98/104 100/94/100 101/95/101 
f 101/95/101 105/99/105 104/98/104 
f 106/100/106 102/96/102 100/94/100 
f 100/94/100 104/98/104 106/100/106 
f 107/101/107 103/97/103 102/96/102 
f 102/96/102 106/100/106 107/101/107 
f 108/102/108 104/103/104 105/104/105 
f 105/104/105 109/105/109 108/102/108 
f 110/106/110 106/107/106 104/103/104 
f 104/103/104 108/102/108 110/106/110 
f 111/108/111 107/109/107 106/107/106 
f 106/107/106 110/106/110 111/108/111 
f 112/110/112 108/102/108 109/105/109 
f 109/105/109 113/111/113 112/110/112 
f 114/112/114 110/106/110 108/102/108 
f 108/102/108 112/110/112 114/112/114 
f 115/113/115 111/108/111 110/106/110 
f 110/106/110 114/112/114 115/113/115 
f 93/87/93 112/110/112 113/111/113 
f 113/111/113 94/88/94 93/87/93 
f 97/91/97 114/112/114 112/110/112 
f 112/110/112 93/87/93 97/91/97 
f 99/93/99 115/113/115 114/112/114 
f 114/112/114 97/91/97 99/93/99 
f 116/114/116 117/115/117 99/93/99 
f 99/93/99 98/92/98 116/114/116 
f 118/116/118 119/117/119 117/115/117 
f 117/115/117 116/114/116 118/116/118 
f 120/48/120 121/52/121 119/117/119 
f 119/117/119 118/116/118 120/48/120 
f 122/118/122 116/114/116 98/92/98 
f 98/92/98 103/97/103 122/118/122 
f 123/119/123 118/116/118 116/114/116 
f 116/114/116 122/118/122 123/119/123 
f 124/42/124 120/48/120 118/116/118 
f 118/116/118 123/119/123 124/42/124 
f 125/120/125 122/118/122 103/97/103 
f 103/97/103 107/101/107 125/120/125 
f 126/121/126 123/119/123 122/118/122 
f 122/118/122 125/120/125 126/121/126 
f 127/41/127 124/42/124 123/119/123 
f 123/119/123 126/121/126 127/41/127 
f 128/122/128 125/123/125 107/109/107 
f 107/109/107 111/108/111 128/122/128 
f 129/124/129 126/125/126 125/123/125 
f 125/123/125 128/122/128 129/124/129 
f 130/60/130 127/126/127 126/125/126 
f 126/125/126 129/124/129 130/60/130 
f 131/127/131 128/122/128 111/108/111 
f 111/108/111 115/113/115 131/127/131 
f 132/128/132 129/124/129 128/122/128 
f 128/122/128 131/127/131 132/128/132 
f 133/56/133 130/60/130 129/124/129 
f 129/124/129 132/128/132 133/56/133 
f 117/115/117 131/127/131 115/113/115 
f 115/113/115 99/93/99 117/115/117 
f 119/117/119 132/128/132 131/127/131 
f 131/127/131 117/115/117 119/117/119 
f 121/52/121 133/56/133 132/128/132 
f 132/128/132 119/117/119 121/52/121 
f 134/44/134 135/41/135 136/129/136 
f 134/44/134 136/49/136 137/72/137 
f 137/72/137 138/68/138 134/44/134 
f 138/68/138 137/72/137 139/74/139 
f 139/74/139 140/35/140 138/68/138 
f 136/130/136 135/52/135 141/57/141 
f 136/49/136 141/57/141 142/78/142 
f 142/78/142 137/72/137 136/49/136 
f 137/72/137 142/78/142 143/80/143 
f 143/80/143 139/74/139 137/72/137 
f 141/131/141 135/60/135 144/65/144 
f 141/57/141 144/65/144 145/84/145 
f 145/84/145 142/78/142 141/57/141 
f 142/78/142 145/84/145 146/38/146 
f 146/38/146 143/80/143 142/78/142 
f 144/44/144 135/41/135 147/129/147 
f 144/44/144 147/49/147 148/72/148 
f 148/72/148 145/68/145 144/44/144 
f 145/68/145 148/72/148 149/74/149 
f 149/74/149 146/35/146 145/68/145 
f 147/130/147 135/52/135 150/57/150 
f 147/49/147 150/57/150 151/78/151 
f 151/78/151 148/72/148 147/49/147 
f 148/72/148 151/78/151 152/80/152 
f 152/80/152 149/74/149 148/72/148 
f 150/131/150 135/60/135 134/65/134 
f 150/57/150 134/65/134 138/84/138 
f 138/84/138 151/78/151 150/57/150 
f 151/78/151 138/84/138 140/38/140 
f 140/38/140 152/80/152 151/78/151 
f 140/41/140 139/48/139 153/49/153 
f 153/49/153 154/44/154 140/41/140 
f 154/44/154 153/49/153 155/72/155 
f 155/72/155 156/68/156 154/44/154 
f 155/72/155 157/74/157 158/35/158 
f 158/35/158 156/68/156 155/72/155 
f 139/48/139 143/56/143 159/57/159 
f 159/57/159 153/49/153 139/48/139 
f 153/49/153 159/57/159 160/78/160 
f 160/78/160 155/72/155 153/49/153 
f 160/78/160 161/80/161 157/74/157 
f 157/74/157 155/72/155 160/78/160 
f 143/56/143 146/64/146 162/65/162 
f 162/65/162 159/57/159 143/56/143 
f 159/57/159 162/65/162 163/84/163 
f 163/84/163 160/78/160 159/57/159 
f 163/84/163 164/38/164 161/80/161 
f 161/80/161 160/78/160 163/84/163 
f 146/41/146 149/48/149 165/49/165 
f 165/49/165 162/44/162 146/41/146 
f 162/44/162 165/49/165 166/72/166 
f 166/72/166 163/68/163 162/44/162 
f 166/72/166 167/74/167 164/35/164 
f 164/35/164 163/68/163 166/72/166 
f 149/48/149 152/56/152 168/57/168 
f 168/57/168 165/49/165 149/48/149 
f 165/49/165 168/57/168 169/78/169 
f 169/78/169 166/72/166 165/49/165 
f 169/78/169 170/80/170 167/74/167 
f 167/74/167 166/72/166 169/78/169 
f 152/56/152 140/64/140 154/65/154 
f 154/65/154 168/57/168 152/56/152 
f 168/57/168 154/65/154 156/84/156 
f 156/84/156 169/78/169 168/57/168 
f 156/84/156 158/38/158 170/80/170 
f 170/80/170 169/78/169 156/84/156 
# 300 faces

